<svg xmlns="http://www.w3.org/2000/svg" width="48" height="48" viewbox="0 0 48 48">
  <circle class="foreground" cx="24" cy="24" r="23"/>
  <g class="background" fill="#FFF">
    <path d="M24 28.1c2.2 0 4.1-1.8 4.1-4.1 0-.9-.3-1.7-.8-2.4-.7-1-2-1.7-3.3-1.7s-2.6.7-3.3 1.7c-.5.7-.8 1.5-.8 2.4 0 2.3 1.9 4.1 4.1 4.1zm9-12.6V15h-4v4h4z"/>
    <path d="M30.4 24c0 3.5-2.9 6.4-6.4 6.4s-6.4-2.9-6.4-6.4c0-.8.2-1.7.5-2.4h-3.5v9.6c0 1.2 1 2.2 2.2 2.2h14.4c1.2 0 2.2-1 2.2-2.2v-9.6h-3.5c.3.7.5 1.6.5 2.4z"/>
    <path d="M24 0C10.745 0 0 10.745 0 24s10.745 24 24 24 24-10.745 24-24S37.255 0 24 0zm11.7 21.6v9.6c0 2.5-2 4.5-4.5 4.5H16.8c-2.5 0-4.5-2-4.5-4.5V16.8c0-2.5 2-4.5 4.5-4.5h14.4c2.5 0 4.5 2 4.5 4.5v4.8z"/>
  </g>
</svg>
