<svg xmlns="http://www.w3.org/2000/svg" width="48" height="48" viewbox="0 0 48 48">
  <circle class="foreground" cx="24" cy="24" r="23"/>
  <path class="background" fill="#FFF" d="M24 0a24 24 0 1 0 0 48 24 24 0 0 0 0-48zm8.6 33.4c-.3.6-1.1.8-1.7.4-4.6-3-10.4-3.7-17.3-2-.6.1-1.3-.3-1.4-1-.2-.7.2-1.5.9-1.6 7.5-1.9 14-1 19.1 2.3.6.4.8 1.2.4 1.9zm2.4-5.8c-.4.8-1.4 1-2 .5a24.2 24.2 0 0 0-19.7-2.4c-.8.2-1.7-.3-1.9-1.1-.2-1 .2-1.8 1-2.1a27 27 0 0 1 22.1 2.8c.7.5 1 1.5.5 2.3zm2.7-6.7c-.5 1-1.6 1.2-2.5.7-6.3-4-16.8-4.5-22.8-2.5-1 .3-2-.2-2.3-1.3a2 2 0 0 1 1.2-2.5 34 34 0 0 1 25.8 2.9 2 2 0 0 1 .6 2.7z"/>
</svg>
