<svg xmlns="http://www.w3.org/2000/svg" width="626" height="576.2"><g fill-rule="evenodd" clip-rule="evenodd"><path fill="#fff" d="M518.5 411.2c.2 18.6.2 37.2.5 55.9 0 8.9.6 17.9 1 26.8.5 10.2.6 20.5-.7 30.7a91.9 91.9 0 0 1-9.5 31.2 24.6 24.6 0 0 1-17.7 13.4c-7.6 1.6-15 .8-22-2.3a25 25 0 0 1-8.7-6.4 46 46 0 0 1-9.6-17.2c-2.6-8.1-4.7-16.3-5.7-24.8-.6-5.1-.7-10.3-1.1-15.5a1049 1049 0 0 1-3.5-63.7c-.6-21.7-.9-43.3-.2-65 .5-17.2.2-34.4-.5-51.6a528 528 0 0 1-.4-13.6c0-1.3 0-2.6.3-3.9.4-1.9.5-3.8.5-5.7 0-3.2 1.3-4.7 4.6-4.7 4.3 0 8.5.2 12.7-.1 3-.2 4.2 1 4.9 3.9.2 1 .2 2.2.2 3.3.1 15.7 0 31.4.2 47l1 71.8c.3 18 .8 36.1 1.3 54.2.4 9.8 1.2 19.6 2.2 29.4.5 5 .9 9.9 1.6 14.8 1 6.8 4.6 12.1 10.1 16.2 3 2 5.5 2 8.5 0a21.2 21.2 0 0 0 9.1-21.8c-.4-2.7-.5-5.4-.2-8.1 1-10.5 1-21 1.4-31.4.2-6.8-.1-13.5-.9-20.1-.3-3 0-6 .2-9 .6-6.7.6-13.5.4-20.3-.4-11.6-.6-23.3-.9-35-.6-21.3-1.8-42.5-2.6-63.8-.2-6.2-.5-12.4-.1-18.7 0-2 .3-4.1.6-6.1.5-2.9 1.2-3.5 4-3.7 4.4-.3 8.7-.7 13-.6 3.1 0 5 1.9 5 5 .2 7.2.4 14.4.4 21.6l.6 87.9zM333.3 93.8c.3 19.1.7 38.2 1.4 57.3.3 9.1.7 18.2.7 27.4 0 2.4.1 4.9.5 7.4.2 1.6.2 3.2-.2 4.7-1 3.7-.6 7.4-.5 11l1.3 41.5c0 1.4.1 2.8.7 4.2 1 2.4.1 3.7-2.5 4-4.7.2-9.4.5-14.1 0-3.2-.2-5-2-5.1-5.2-.4-6.7-.8-13.4-1-20.1-.5-14-.8-28.1-1.2-42.2-.4-12.5-.6-25-1.4-37.4-.3-6.6-.8-13.1-1.2-19.6 0-1.3-.5-1.6-1.7-1.6l-25.9.2c-1.6 0-1.7 0-1.7 1.7.1 5.9.3 11.7 0 17.5-1.4 20.7-.7 41.5-.2 62.2l1 34.5c.2 2.2.6 4.4.5 6.7-.1 3.2-1.1 4.3-4.3 4.6-5 .5-9.9.4-14.8.5l-1-.1c-3.3-.5-4.2-1.3-4-4.7.5-8.4.5-16.8.6-25.2.3-17.5.6-35 .3-52.5-.5-28.7-1-57.4-1.8-86.1l-.8-13.9c-.3-6.7-.2-13.4.4-20.1.5-5.4-.2-10.7-.7-16L255.4 23c-.4-5.4.4-10.7 1-16 .3-2.3 1.8-3.3 4-4l2.1-.1h12c3.1 0 3.8.8 3.9 3.9l.1 22.8.5 71.5v.7c-.1 1.2.5 1.5 1.6 1.5l5.5-.1 24-.2c2.3 0 2 0 2-2.1l-.1-32.2-.2-27-.3-32.7c0-5.2 1.3-6.5 6.5-6.5h12.5c2.2 0 2-.1 2.1 2l.1 27.2.6 54.2v7.9zM416.6 0a106.3 106.3 0 0 0 13.4.6c4 0 4.6.5 5 4.2.6 4.4.5 8.8.5 13.2 0 1.3-1 1-1.7 1l-15.8.2-43.7.2c-2.2 0-2.2 0-2.2 2a19873.5 19873.5 0 0 1 .6 72.7c0 2.4 0 2 2.1 2 7 0 13.8.1 20.7-.1 3.6-.1 5.1 1.3 5.2 5 .1 3 0 6.2 0 9.3 0 .8-.2 1.7-.4 2.6-.2 1.3-1 2.1-2.3 2.5-.5 0-1 .3-1.4.3-6.4 0-12.6 1.9-19 1.6-1.9-.1-2 0-1.9 1.7 0 15.8.2 31.6.3 47.3 0 14.9.2 29.8.3 44.6l.1 15.4c0 2.9-.4 2.6 2.8 2.6l17.5-.2 37.9-.2h4.3c3.7 0 5 1.2 4.8 4.8V248c.1 2.2.1 2.2-2.1 2.2H426l-39.4.3-30.7.2c-2.2 0-2 .1-2-2l-.1-11c0-3 0-6-.7-8.9-.5-2.1-.2-4.3-.2-6.4l-.3-38.4c0-8 .8-15.8.8-23.8 0-9.3-.5-18.7-.8-28-.5-13.1-.5-26.2 0-39.3.5-14.1.2-28.2-.3-42.3l-1-33c-.3-4.9-1-9.7-1.4-14.6-.2-2-.4-2 1.7-2 4.8-.2 9.6-.1 14.4-.2 9.3-.1 18.6.1 27.8-.5L395 0H410.4l2-.1h1.8c.8.1 1.6.2 2.4 0zM626 304.9v4.4c-.1 2-1.4 3.2-3.3 3.8-1.4.5-2.9.5-4.3.5l-29.7.3c-2.6 0-2 0-2.3 2-1 11.3-1.1 22.6-1.4 34-.5 21.5-1.4 43-1.2 64.5 0 19.3-.1 38.5-.3 57.8-.1 13-.3 26-.2 38.9l.5 55.2v1.9a3.4 3.4 0 0 1-3 3.1c-.8.2-1.7.3-2.6.3h-14.6c-4-.4-5.5-2.1-5.4-6.1l1-28.6c.4-12 1-24.1.8-36.2-.3-14.6.3-29.3.6-43.9.1-3.7.1-7.5-.4-11.2-1-6.9-.5-13.8-.3-20.6l.9-33.9 1.9-56.8c.2-5.8.4-11.6.4-17.5 0-2.3-.1-2-2-1.8l-25.1 1.4c-3.2.2-2.6.4-2.7-2.6v-12.7c0-4.1 1.7-5.7 6-5.9l30.6-.9c13.4-.5 26.8-1.2 40.2-2.2 4-.3 7.8-.8 11.8-.7 2.6 0 3.5.9 4.1 3.4a2189350.8 2189350.8 0 0 1 0 10zM177.4 130.2l-.4-69-.3-30.9c0-2.7.1-2.3-2.3-2.3l-37.6.3a27 27 0 0 1-4.3-.3c-1.6-.3-2.6-1.2-3-2.8-.3-1.4-.4-2.8-.4-4.3 0-2.7-.4-5.2-1.4-7.7l-.6-1.8c-.8-2.8-.6-3 2.2-3.2 20.6-1.7 41.3-1.2 62-1.4l48.8-.4c1.5 0 3 0 4.5.4 1.5.3 2.4 1.2 2.6 2.7.6 4.1.3 8.2-.7 12.2-.5 2-2.3 3.3-4.9 3.4-4.2.2-8.5.3-12.7.3l-23.5.1h-1c-1.2-.1-1.7.4-1.8 1.6 0 2-.3 4.2-.5 6.2a654 654 0 0 0-1.6 35.2c-.4 13.6-.3 27.2-.6 40.8-.4 23 0 46-.3 69.1-.2 15.3-.4 30.6-.3 45.8 0 6.6.6 13.1 1 19.7.2 2.2.3 4.5.6 6.7 0 1-.1 1.5-1.3 1.4h-19.1c-2.2 0-2.2.4-2.2-2.2l-.3-38.1-.6-81.5zM101.8 446.3c0-10.9-.8-21.7-1.7-32.6l-2.7-32.5c-.7-8-1.8-15.9-3.6-23.7-2.7-11.8-6.6-23.3-10.4-34.8a21.7 21.7 0 0 0-7.2-10.3 56.6 56.6 0 0 0-43.3-12.1c-9 1-17.6 3.4-26 6.5-4 1.5-5.4 3.5-5.6 7.7l-.1 8.6L.9 353c0 10.7-.4 21.4-.3 32.1l-.2 24.5c.2 5.3 0 10.6-.4 15.9.2 1.4.2 2.9 0 4.3.2 2.6.2 5.1 0 7.7v4.3c.2 5.7.1 11.5 0 17.2.2 3 .2 6.1 0 9.2a37 37 0 0 1 0 7.6c.5.8.3 1.6.3 2.4l.1 12.2v20c.9 7.6.6 15.2.9 22.8.4 12.3.5 24.7 1 37 0 2.4 1.4 3.6 3.3 4.1.7.3 1.5.3 2.3.4l13.4.6c3 .2 6 0 8.8 1h24.7c3.4-1.2 7-1.5 10.6-2 9.5-1.2 16.8-6 22-14 2.3-3.6 4-7.5 5.3-11.6 3.9-12.6 5.7-25.5 7.1-38.6 1-8.8 1.4-17.6 1.7-26.5.4-12.4.1-24.8.3-37.2zm-21.1 13.4c-.5 11.2-1.3 22.5-2.3 33.7-.8 7.8-1.4 15.6-2.5 23.4-1.1 7.6-2.8 15.2-4.5 22.8-.5 2-1.7 3.7-3.3 5.2A34.7 34.7 0 0 1 53 553a52.8 52.8 0 0 1-25.2.1c-3.5-.7-4.7-2-4.8-5.5l-.5-18-1.9-71.4-.5-19.6c-.4-20.2.1-40.3.2-60.5 0-13 .5-26 .3-39 0-2.7-.3-5.4-.4-8-.2-5.3 1.8-8 6.9-9.5a42 42 0 0 1 17.8-1.5c6.1 1 11 4 15 8.6 2.3 2.6 4.1 5.5 5.5 8.7a208 208 0 0 1 11 32.6c1.6 6.6 2.2 13.3 2.9 20 1.4 13.8 1.3 27.7 1.6 41.6.2 9.4.3 18.7-.1 28zM195.7 570.1c-.1-1.3-.4-2.5-.7-3.7-5.5-22.6-10.3-45.4-15-68.1-5.5-27-11.4-54-17-80.9-3.7-17-6.8-34.3-10-51.5-.2-1.2 0-1.7 1-2.1 2.7-1 5.3-2.1 7.8-3.3a40 40 0 0 0 13.1-9.5c5.2-5.8 8-12.7 7.3-20.4a38 38 0 0 0-21.1-32.5 48.8 48.8 0 0 0-42.5-1c-2.2 1-3.3 2.8-3.4 5.1-.3 8-.8 15.9-.8 23.8-.3 18.4 0 37 .2 55.4l.5 78.7c0 9.4.3 18.8.9 28.3.5 7.5.7 15.1-.2 22.7-.6 4-1 8.1-1.1 12.2-.1 10.2.3 20.5.7 30.7.1 4.5.4 9 .7 13.4.3 4.6 2.5 6.8 7 7.3 1.1 0 2.1.2 3.2.3 3.6.2 7.3 1 11 .8 2.4 0 3.4-.9 3.7-3.3.2-1 .2-2 0-2.9-.5-3-.7-6.2-1-9.3a1163.6 1163.6 0 0 1-4.5-92.7c-.3-17.7-.7-35.5-.7-53.2v-22.6c0-2.2.2-4.4 1-6.9 1.1 1.8 1.6 3.4 1.9 5l3.4 17.7c2.2 11 4.2 22.2 6.6 33.1 3 13.5 5.3 27 7.4 40.6 1.5 10 3.2 20 5 30 2.8 16.1 6.1 32.2 9.4 48.2.7 3.7 1.4 7.4 2.4 11 .9 3.2 2.9 4.5 6.1 4 3.1-.3 6.2-.2 9.4-.2 1.7 0 3.5 0 5.2-.2 2.4-.3 3.4-1.6 3.1-4zM138.6 350c-3 .4-3 .4-3-2.6v-19h-.3v-19.6c0-2.4 0-2.5 2.5-2.4 6.7 0 12.4 2.5 16.6 7.7a26.2 26.2 0 0 1 5 24.2 13.3 13.3 0 0 1-9.1 9.4c-3.8 1.3-7.8 1.7-11.7 2.3zM424.4 374.2c-.3-8.8-.4-17.6-1.2-26.4A301 301 0 0 0 419 319c-.8-3.8-1.3-7.7-2.8-11.4-3-7.8-8.6-12.7-17-14.3-4.7-.9-9.5-.7-14.2.6-7 1.8-12.2 5.5-15.3 12.3-3.2 7.2-6.2 14.5-9.2 21.8-3 7.3-4.3 15-4.8 22.9-.5 7.5-.6 15-1.4 22.5a1060.6 1060.6 0 0 0-4.8 76.6l-.9 27.5c0 3.5-.4 6.9 0 10.3a160 160 0 0 1 1.3 19.9c0 4.7.5 9.4 1.1 14 1.6 10.9 4.5 21.3 8.2 31.6a38 38 0 0 0 5 10c3.4 4.4 7.6 7.2 13.1 8.2 6 1 12 .6 18 0 6.5-.5 11.6-3.6 15.4-8.8a54.6 54.6 0 0 0 10.3-27.3l2.6-24.3c1-8.9 2.2-17.8 2.2-26.7v-27.6-34.3l-1.4-48.2zm-16 35.3c-.6 10.5-1.1 21-1.4 31.6-.2 6.2.3 12.3.6 18.5.3 4.8.3 9.6-.1 14.3-.7 7.8-.8 15.5-1 23.3-.3 9.5-.6 19-1.5 28.5-.4 4.5-1.7 8.7-4.6 12.4a17 17 0 0 1-13 6.7c-5.3.3-9-2.3-10.4-7.3-2.5-9-4.5-18-4.9-27.3-.6-16-1.3-32-1.5-48a614.8 614.8 0 0 1 4.8-89.7c1.5-10.2 3.7-20.3 6-30.3l1.6-7a14 14 0 0 1 4.4-7c1.6-1.4 3.4-2 5.5-1.4 4 1 7 3.1 8.6 7a54 54 0 0 1 3.5 13.6c1.3 9.2 2.1 18.5 3 27.7 0 1 .6 2-.8 2.7-.5.3-.1 1.5 0 2.3 1.5 9.7 1.6 19.5 1.1 29.4zM273.3 483.8c-.2-9.3-1.2-18.5-1.7-27.8l-1.5-23a452 452 0 0 1-1.4-35.4c.2-8.2-.3-18.5-1-28.8-.8-10-2-20.2-3.3-30.2-.8-6.2-1.5-12.4-2.8-18.5-1.2-5.7-3.3-11-7-15.6-5-6-11.4-9.2-19.4-8.6-4.1.3-8.1 1.3-12 3.2-6.3 3.1-11 7.8-13 14.7l-2 6.2a256.3 256.3 0 0 0-7.4 49c-.3 8.8 0 17.6 1.1 26.3.7 5.4 1.3 10.8 1.1 16.3l-1.1 32.3c-.3 8.1-.7 16.2.1 24.2.8 7.6 1 15.1.6 22.7-.2 5.4-.1 10.7.6 16 1.3 10.2 2.8 20.3 4.6 30.4 1 5.7 2 11.5 3.4 17.1.9 3.1 2 6.2 4.1 8.6 2.6 3 5.5 5.6 9 7.6 2.1 1.3 4.5 2.2 7 2.8 4.6 1 9 .2 13.6-.6 10.6-2 17.4-8 20.2-18.6a179 179 0 0 0 5.1-25.6c.9-7.1 1.6-14.3 2.2-21.5.7-7.7 1-15.4.9-23.2zm-18.6-9.2l-.4 32.8c0 5.6-.1 11.2-.9 16.8a20 20 0 0 1-6.8 12.8c-3 2.7-6.6 4-10.7 4.1-5 0-8.3-2.2-9.8-6.9-1.1-3.4-2-6.9-2.9-10.4-1.7-6.7-2.5-13.6-3-20.6-.7-12-1.5-24-2-36.1-.5-9.5-1-19-.9-26-.1-18.7.3-34.9 1.4-51 .6-7.6 1-15.1 2-22.7a400.9 400.9 0 0 1 6.3-35.3c.6-3 2.2-5.5 4.4-7.6a5.5 5.5 0 0 1 5-1.5c4 .8 7 2.6 8.9 6.3 2.3 4.7 3.4 9.7 4.2 14.9 1.6 9.2 2.5 18.5 3.7 27.8 0 .4.3 1 0 1-1.6.7-.9 1.8-.8 2.7.5 4.1 1.1 8.2 1.5 12.4.7 7 .3 13.9.2 20.8-.1 11.5-.7 23-.2 34.6.2 4.2.6 8.4 1 12.6.5 6.2 0 12.3-.2 18.5zM345 324.8a55.6 55.6 0 0 0-3.2-14.9c-3.6-9-10-15-19.2-18-3.2-1.1-6.5-1.7-9.9-2.1-3.2-.4-6.4-.6-9.5.3l-15 4c-3 1-4.6 3.2-5 6.2v2.7a615 615 0 0 1-.3 35.2 260 260 0 0 0 .6 35.2c.8 8 1.4 16.1 2 24.2.8 10.1 1.1 20.3 1.4 30.4l1.2 59.1.7 21.7c.4 15.4.7 30.7.7 46 0 4.4-.2 8.7.4 13 .5 3.4 2 5 5.4 5.4 4.2.6 8.4.6 12.6.2 3.7-.4 4.8-1.6 4.9-5.3 0-2.4-.3-4.7-.6-7.1-.5-4.3-1.3-8.6-1.6-12.9a1774 1774 0 0 1-1.8-38.5c-1-25.9-1.8-51.7-2.6-77.5-.8-23.7-1.7-47.4-1.5-71.2 0-3.8 0-3.8 3.7-4.2 4.7-.5 9.2-1.4 13.6-2.9a33.8 33.8 0 0 0 22.3-22.4c.7-2.1 1-4.3.8-6.6zm-23.4 5.3a20.8 20.8 0 0 1-12.8 6.4c-2 .2-4.1.6-6.4.5l-1-16.5c0-2.4-.3-4.9-.4-7.4-.1-4 1.5-5.9 5.6-6.2 3.4-.2 6.8.3 10 1.5 7.6 2.6 12.6 14 5 21.7z"/></g></svg>
